<svg version="1.1" xmlns="http://www.w3.org/2000/svg" xmlns:xlink="http://www.w3.org/1999/xlink" width="61.06055" height="53.10544" viewBox="0,0,61.06055,53.10544"><g transform="translate(-208.67192,-145.07618)"><g data-paper-data="{&quot;isPaintingLayer&quot;:true}" fill-rule="nonzero" stroke-linecap="butt" stroke-linejoin="miter" stroke-miterlimit="10" stroke-dasharray="" stroke-dashoffset="0" style="mix-blend-mode: normal"><path d="M250.34844,159.47944h8.68c3.42417,0 6.2,2.68629 6.2,6c0,3.31371 -2.77583,6 -6.2,6h-8.68v21.6c-0.0856,2.89949 -2.58386,5.18284 -5.58,5.1c-2.99614,-0.08284 -5.3556,-2.50051 -5.27,-5.4c-0.0856,-2.15391 -1.95929,-3.83284 -4.185,-3.75c-2.22571,0.08284 -3.9606,1.89609 -3.875,4.05c-0.0856,2.81665 -2.51446,5.03284 -5.425,4.95c-2.91054,-0.08284 -5.2006,-2.43335 -5.115,-5.25v-11.1h-3.41c-1.86,0 -2.17,-0.3 -2.17,-2.1v-18.6c0,-1.8 0.31,-2.1 2.17,-2.1h3.41c0.17121,-7.78721 6.83321,-13.96569 14.88,-13.8c8.04679,0.16569 14.43121,6.61279 14.26,14.4" fill="#0060ff" stroke="none" stroke-width="0"/><text transform="translate(209.17192,175.54981) scale(0.5,0.5)" font-size="40" xml:space="preserve" fill="#e32020" fill-rule="nonzero" stroke="#000000" stroke-width="2" stroke-linecap="butt" stroke-linejoin="miter" stroke-miterlimit="10" stroke-dasharray="" stroke-dashoffset="0" font-family="Sans Serif" font-weight="normal" text-anchor="start" style="mix-blend-mode: normal"><tspan x="0" dy="0">config</tspan></text></g></g></svg>