<svg version="1.1" xmlns="http://www.w3.org/2000/svg" xmlns:xlink="http://www.w3.org/1999/xlink" width="36.7491" height="36.18056" viewBox="0,0,36.7491,36.18056"><g transform="translate(-221.80963,-161.79538)"><g data-paper-data="{&quot;isPaintingLayer&quot;:true}" fill-rule="nonzero" stroke-linejoin="miter" stroke-miterlimit="10" stroke-dasharray="" stroke-dashoffset="0" style="mix-blend-mode: normal"><path d="M255.07757,180c0,8.14608 -6.75045,14.74979 -15.07756,14.74979c-8.32711,0 -15.07756,-6.6037 -15.07756,-14.74979c0,-8.14608 6.75045,-14.74979 15.07756,-14.74979c8.32711,0 15.07756,6.6037 15.07756,14.74979z" fill="#030361" stroke="#01013a" stroke-width="5" stroke-linecap="butt"/><path d="M257.80874,179.88566c0,9.57677 -7.89078,17.34028 -17.62455,17.34028c-9.73377,0 -17.62455,-7.76351 -17.62455,-17.34028c0,-9.57677 7.89078,-17.34028 17.62455,-17.34028c9.73377,0 17.62455,7.76351 17.62455,17.34028z" fill="none" stroke="#000000" stroke-width="1.5" stroke-linecap="butt"/><path d="M239.41506,167.16013l-4.61475,9.2295l-8.94982,0.13984l9.08966,6.85221l-4.61475,6.43268l9.92871,-5.4538l9.2295,4.61475l-3.91555,-5.87332l8.5303,-6.43268h-9.36934l-5.4538,-8.39046l0.6992,0.79243" fill="none" stroke="#01013a" stroke-width="1" stroke-linecap="round"/><path d="M244.72745,179.23298c0,3.367 -5.01558,4.31501 -5.01558,0.40704c-0.09059,-0.25871 -0.13984,-0.53684 -0.13984,-0.82647c0,-0.04151 0.00101,-0.08278 0.00301,-0.12379c0.07203,-2.00114 1.25096,-2.59934 2.46285,-2.37598c0.01136,-0.00015 0.02274,-0.00023 0.03414,-0.00023c1.17364,0 2.15839,0.80873 2.42737,1.89931c0.14501,0.31891 0.22805,0.66275 0.22805,1.02012z" fill="#030361" stroke="none" stroke-width="0.5" stroke-linecap="butt"/><path d="M239.08521,186.73431c-2.00741,1.20444 -3.21713,5.32011 -6.65363,3.35639c-4.1757,-2.38611 1.80465,-4.75589 0.84761,-6.81939c-0.21664,-0.4671 -10.46908,-3.90782 -6.50949,-7.53614c2.64905,-2.42742 5.34883,1.04235 8.32333,0.99789c0.11798,-0.00176 0.29413,-1.8426 0.3531,-2.07846c0.528,-2.11202 1.88451,-7.06584 5.21893,-5.16045c1.20365,0.6878 1.67592,4.15883 2.804,5.54438c0.18755,0.23035 0.94843,2.23787 1.13268,2.16042c1.63412,-0.68689 10.05507,-4.75118 8.79585,0.9153c-0.50256,2.26151 -5.18265,4.67801 -7.72744,4.73754c-0.39551,0.00925 0.65985,0.43866 1.00806,0.62646c0.45525,0.24553 1.52419,1.00954 1.8252,1.48916c0.66293,1.05631 0.14274,2.92567 -0.84631,3.58504c-3.66528,2.44352 -6.21848,-5.36759 -8.01253,-2.37751z" fill="#01013a" stroke="none" stroke-width="0.5" stroke-linecap="butt"/></g></g></svg>